<?xml version="1.0" encoding="utf-8"?>
<!-- Generator: Adobe Illustrator 22.0.1, SVG Export Plug-In . SVG Version: 6.00 Build 0)  -->
<svg version="1.1" baseProfile="tiny" id="Layer_1" xmlns="http://www.w3.org/2000/svg" xmlns:xlink="http://www.w3.org/1999/xlink"
	 x="0px" y="0px" viewBox="0 0 697 211.2" xml:space="preserve">
<g>
	<g>
		<rect x="596.9" y="115.7" fill="#FFFFFF" width="4.2" height="4.2"/>
		<path fill="#FFFFFF" d="M677.4,145.8c-1.7-1.4-3.7-2.3-5.8-2.6v-1.6c1.5,1,3.3,1.6,5.2,1.6c0,0,0,0,0,0c1.5,0,2.9-0.6,3.8-1.7
			c1-1.1,1.4-2.6,1.2-4l-2.6-20.8c-1.1-8.7-5.9-15.2-13.1-17.6l-9.5-3.2c-5.5-1.8-11.2-2.6-17-2.2l-26.2,1.6v-2.2h-36.8
			c1.5,1.3,2.9,2.6,4.1,4.2h28.6V122v2.3h-14.5v-22.8h-4.2v22.8v2.1v6.2h-5.8c-0.7,1.4-1.5,2.8-2.5,4.2h12.5v-8.3h18.7v-5.1l5.8,1.9
			c2.6,0.9,4.9,2.5,6.8,4.9c1.7,2.5,3.9,4.4,6.6,5.7c4.7,2.2,11.4,4.6,16.8,3.5c2.6-0.6,4.8-0.6,6.9-0.2l7.1,1.3
			c1.4,0.3,2.8,0,4-0.6v3.3c-0.2,0-0.4,0.1-0.6,0.1c-1.4,0.3-2.7,0.8-3.8,1.5c-4-0.8-8.2,0.5-11.2,3.4c-3.2,3.2-4.4,7.8-3.2,12
			L634.9,174c-1.3,1.3-2.1,3.1-2.1,5c0,1.9,0.7,3.7,2.1,5l3.8,3.8l18.8-18.8c1.9,0.5,3.9,0.6,5.8,0.1v16.5c0,3.9,3.2,7.1,7.1,7.1
			h5.4v-26.6c3.8-2.2,6.2-6.3,6.2-10.8C682,151.7,680.3,148.2,677.4,145.8z M658.2,114l-4.4-1.1c-0.6-0.2-1.2-0.2-1.8-0.2
			c-1.4,0-2.8,0.4-3.9,1.3c-1.5,1.2-2.4,3.1-2.4,5.3c0,2.6,2,5.3,4.5,6l14.1,4c1.3,0.4,2.3,1.3,2.7,2.5c0.4,1.3,0.2,2.6-0.6,3.6
			c-0.5,0.7-1.3,1-2.2,0.9l-7.1-1.3c-2.6-0.5-5.4-0.4-8.5,0.3c-3.3,0.7-8.3-0.4-14.1-3.2c-2-1-3.8-2.5-5-4.3l-0.1-0.2
			c-2.4-3-5.4-5.1-8.8-6.2l-7.1-2.4V99.5l26.4-1.7c5.2-0.3,10.4,0.3,15.4,2l9.5,3.2c5.7,1.9,9.4,6.9,10.3,14.1l2.6,20.8
			c0,0.4-0.1,0.6-0.2,0.7c-0.1,0.1-0.3,0.3-0.7,0.3h0c-2.3,0-4.4-1.7-4.8-4l-0.3-1.7v-0.8h-0.2l-1.2-5.9
			C669.1,120.5,664.3,115.5,658.2,114z M665.6,125.3C665.5,125.3,665.5,125.3,665.6,125.3l-14.2-4.1c-0.8-0.2-1.5-1.2-1.5-2
			c0-0.9,0.3-1.6,0.8-2c0.4-0.3,0.8-0.4,1.3-0.4c0.3,0,0.5,0,0.8,0.1l4.4,1.1C661,119,664.1,121.7,665.6,125.3z M669.6,153.4
			c1.1,0,2.1,0.9,2.1,2.1s-0.9,2.1-2.1,2.1c-1.1,0-2.1-0.9-2.1-2.1S668.4,153.4,669.6,153.4z M657.7,164.8l-1.3-0.5L638.7,182
			l-0.9-0.9c-0.6-0.6-0.9-1.3-0.9-2.1c0-0.8,0.3-1.5,0.9-2.1l15.6-15.6l-0.5-1.3c-1.2-3.1-0.5-6.6,1.9-8.9c1.1-1.1,2.6-1.9,4.1-2.2
			c-0.8,1.3-1.4,2.8-1.6,4.3c-0.8,4.6,1,9.2,4.6,12C660.5,165.4,659,165.3,657.7,164.8z M672.9,163.1l-1.2,0.5v25.1h-1.2
			c-1.6,0-2.9-1.3-2.9-2.9v-1.2h2.1v-4.2h-2.1v-2.1h2.1v-4.2h-2.1v-2.1h2.1v-4.2h-2.1v-4.3l-1.2-0.5c-3.5-1.5-5.5-5.3-4.9-9.1
			c0.5-3.1,3-5.8,6.1-6.6v2.2c-2.4,0.9-4.2,3.2-4.2,5.9c0,3.4,2.8,6.2,6.2,6.2c3.4,0,6.2-2.8,6.2-6.2c0-2.7-1.7-5-4.2-5.9v-2.2
			c1.1,0.3,2.2,0.8,3.2,1.6c2,1.6,3.1,3.9,3.1,6.4C677.9,158.8,675.9,161.7,672.9,163.1z"/>
	</g>
	<g>
		<path fill="#FFFFFF" d="M275.3,141.2h-17.7l-23.2-71.4h16.2l15.9,50.2h0.2l16.1-50.2H299L275.3,141.2z"/>
		<path fill="#FFFFFF" d="M305.9,118.8c0.4,9,4.8,13.1,12.7,13.1c5.7,0,10.3-3.5,11.2-6.7h12.5c-4,12.2-12.5,17.4-24.2,17.4
			c-16.3,0-26.4-11.2-26.4-27.2c0-15.5,10.7-27.3,26.4-27.3c17.6,0,26.1,14.8,25.1,30.7H305.9z M329,109.8c-1.3-7.2-4.4-11-11.3-11
			c-9,0-11.6,7-11.8,11H329z M319.9,83.1H310l9.6-14.2h15.7L319.9,83.1z"/>
		<path fill="#FFFFFF" d="M346.6,89.5h13.5v7.2h0.3c3.6-5.8,9.8-8.6,15.8-8.6c15.1,0,18.9,8.5,18.9,21.3v31.8h-14.2V112
			c0-8.5-2.5-12.7-9.1-12.7c-7.7,0-11,4.3-11,14.8v27.1h-14.2V89.5z"/>
		<path fill="#FFFFFF" d="M438,134.6h-0.2c-3.3,5.6-9.1,8-15.7,8c-15.6,0-23.2-13.4-23.2-27.7c0-13.9,7.7-26.8,22.9-26.8
			c6.1,0,12.1,2.6,15.3,7.7h0.2v-26h14.2v71.4H438V134.6z M425.6,98.8c-9.3,0-12.5,8-12.5,16.5c0,8.1,3.7,16.6,12.5,16.6
			c9.4,0,12.2-8.2,12.2-16.7C437.8,106.8,434.8,98.8,425.6,98.8z"/>
		<path fill="#FFFFFF" d="M469.3,118.8c0.4,9,4.8,13.1,12.7,13.1c5.7,0,10.3-3.5,11.2-6.7h12.5c-4,12.2-12.5,17.4-24.2,17.4
			c-16.3,0-26.4-11.2-26.4-27.2c0-15.5,10.7-27.3,26.4-27.3c17.6,0,26.1,14.8,25.1,30.7H469.3z M492.4,109.8
			c-1.3-7.2-4.4-11-11.3-11c-9,0-11.6,7-11.8,11H492.4z"/>
		<path fill="#FFFFFF" d="M510.1,69.8h14.2v71.4h-14.2V69.8z"/>
		<path fill="#FFFFFF" d="M555.3,88.1c16.3,0,26.8,10.8,26.8,27.3c0,16.4-10.5,27.2-26.8,27.2c-16.2,0-26.7-10.8-26.7-27.2
			C528.5,98.9,539.1,88.1,555.3,88.1z M555.3,131.9c9.7,0,12.6-8.3,12.6-16.5c0-8.3-2.9-16.6-12.6-16.6c-9.6,0-12.5,8.3-12.5,16.6
			C542.8,123.6,545.7,131.9,555.3,131.9z"/>
	</g>
	<g>
		<path fill="#FFFFFF" d="M53.6,81.7c-7.8,0-14.1,11.1-14.1,24.7c0,13.6,6.3,24.7,14.1,24.7c7.8,0,14.1-11.1,14.1-24.7
			C67.7,92.7,61.4,81.7,53.6,81.7z"/>
		<path fill="#FFFFFF" d="M177.1,37.9c-17.9-17.9-41.8-27.8-67.2-27.8c-25.4,0-49.2,9.9-67.2,27.8c-17.9,17.9-27.8,41.8-27.8,67.2
			c0,25.4,9.9,49.2,27.8,67.2c17.9,17.9,41.8,27.8,67.2,27.8c25.4,0,49.2-9.9,67.2-27.8c17.9-17.9,27.8-41.8,27.8-67.2
			C204.9,79.7,195.1,55.9,177.1,37.9z M53.6,142.7c-16.7,0-30.3-16.3-30.3-36.3C23.4,86.3,36.9,70,53.6,70
			c16.7,0,30.3,16.3,30.3,36.3C83.9,126.4,70.4,142.7,53.6,142.7z M120.5,120.9l-25.6,0c-4.9-0.1-7.1-2.7-7.2-7.1l0-46.4
			c-0.3-3.6,1.2-7.1,5.5-7.1l6.3,0c4.3,0,5.6,3.1,5.5,6.9l-0.1,33c0.2,4.1,1.1,4.8,5.3,4.8h10.5c2.6-0.1,6.4-0.1,6.4,3.6v8
			C126.8,120.1,124.6,121,120.5,120.9z M185.5,143.8l-11,3c-3.6,1-7.6-1-9-4.5L153,119.6l-15.3,22.6c-2.1,3.1-5.4,3-7.4-0.1
			l-4.6-7.2c-2-3.1-1.6-8,0.8-10.8l18.2-20.6l-12.7-25.8c-1.4-3.4,0.3-7.2,3.7-8.3c3.5-1.1,8,0.5,10,3.6l10.9,16.4l15.8-18.1
			c2.4-2.8,6.3-3.8,8.9-2.7c2.6,1.1,3.5,4.2,1.4,7.2l-17.7,26.1l23.1,34.7C190.3,139.5,189,142.9,185.5,143.8z"/>
	</g>
	<g>
		<path fill="#FFFFFF" d="M293,157.3h21.8c12,0,16.7,6.8,16.7,13.7c0,7-4.7,13.7-16.7,13.7h-11.2v15.4H293V157.3z M303.6,177.4h8.3
			c4.9,0,9.3-1,9.3-6.4c0-5.5-4.4-6.4-9.3-6.4h-8.3V177.4z"/>
		<path fill="#FFFFFF" d="M357.3,156.2c14.9,0,23.7,9.9,23.7,22.6c0,12.4-8.8,22.3-23.7,22.3c-14.9,0-23.7-9.9-23.7-22.3
			C333.6,166.1,342.4,156.2,357.3,156.2z M357.3,193.2c9.5,0,13.1-7.2,13.1-14.3c0-7.5-3.6-14.7-13.1-14.7
			c-9.5,0-13.1,7.2-13.1,14.7C344.2,186,347.8,193.2,357.3,193.2z"/>
		<path fill="#FFFFFF" d="M386.1,157.3h26c8.7,0,14.1,5.3,14.1,11.8c0,5-2.3,8.8-7.6,10.7v0.1c5.2,1.2,6.7,5.7,7,10
			c0.2,2.7,0.1,7.7,2,10.1h-10.6c-1.3-2.7-1.2-6.8-1.7-10.3c-0.7-4.5-2.7-6.5-8-6.5h-10.6v16.7h-10.6V157.3z M396.7,176.6h11.6
			c4.7,0,7.3-1.8,7.3-6.1c0-4.1-2.6-5.9-7.3-5.9h-11.6V176.6z"/>
		<path fill="#FFFFFF" d="M451,157.3h14.9l11.3,29.5h0.1l10.7-29.5H503v42.8h-9.9v-30.4h-0.1l-11.8,30.4h-8.2L461.1,170h-0.1v30.1
			H451V157.3z"/>
		<path fill="#FFFFFF" d="M510.3,157.3h10.6v42.8h-10.6V157.3z M517.2,153.4h-6.7l6.5-8.5h10.6L517.2,153.4z"/>
	</g>
</g>
</svg>
